External Loads File
version=1
nRows=30
nColumns=13
Range=5.000000e-03-10 seconds
endheader
time 	forceRightX 	forceRightY 	forceRightZ 	pointRightX 	pointRightY 	pointRightZ 	forceLeftX 	forceLeftY 	forceLeftZ 	pointLeftX 	pointLeftY 	pointLeftZ 		
2.505000 -414.924597 -669.955098 -0.000000 0.352329 0.445533 -0.150074 -119.894012 1022.527755 -0.000000 0.145949 0.209471 -0.377160
2.510000 -385.976737 -717.882310 -0.000000 0.357561 0.438332 -0.149996 -120.224604 1022.421658 -0.000000 0.140199 0.216120 -0.377147
2.515000 -350.664133 -762.607968 -0.000000 0.362746 0.430655 -0.149874 -121.334686 1022.405383 -0.000000 0.134884 0.223130 -0.376956
2.520000 -308.068709 -804.626005 -0.000000 0.367814 0.422846 -0.149707 -125.555641 1022.322494 -0.000000 0.129949 0.230474 -0.376545
2.525000 -265.727060 -841.422294 -0.000000 0.372648 0.414753 -0.149274 -124.659387 1023.336609 -0.000000 0.125359 0.238193 -0.376745
2.530000 -222.219120 -874.352814 -0.000000 0.377302 0.406482 -0.149265 -122.181983 1025.205014 -0.000000 0.121190 0.246111 -0.376637
2.535000 -173.038796 -904.548029 -0.000000 0.381607 0.397996 -0.148994 -124.435574 1027.353931 -0.000000 0.117512 0.254286 -0.376530
2.540000 -122.796248 -930.691431 -0.000000 0.385577 0.389458 -0.148785 -126.734536 1030.484096 -0.000000 0.114322 0.262641 -0.376445
2.545000 -75.297576 -952.610515 -0.000000 0.388923 0.380824 -0.147945 -125.500876 1035.078641 -0.000000 0.111626 0.271186 -0.376342
2.550000 -26.168743 -971.127466 -0.000000 0.392287 0.372102 -0.147666 -125.838419 1040.392778 -0.000000 0.109382 0.279871 -0.376323
2.555000 23.922700 -986.307469 -0.000000 0.395296 0.363078 -0.147336 -126.930044 1046.150174 -0.000000 0.107541 0.288834 -0.376211
2.560000 72.549524 -998.548733 -0.000000 0.398065 0.353882 -0.147043 -125.901054 1051.952032 -0.000000 0.106192 0.298076 -0.376066
2.565000 124.141072 -1007.859214 -0.000000 0.400451 0.344814 -0.146838 -127.098062 1056.048481 -0.000000 0.105276 0.307139 -0.376040
2.570000 174.789353 -1014.665569 -0.000000 0.402694 0.335632 -0.147387 -126.387213 1057.122182 -0.000000 0.104688 0.316397 -0.376122
2.575000 227.493574 -1018.426721 -0.000000 0.404187 0.326352 -0.147110 -127.259761 1052.269225 -0.000000 0.104707 0.325735 -0.376195
2.580000 278.923159 -1019.539970 -0.000000 0.405275 0.317048 -0.146853 -126.685364 1038.705047 -0.000000 0.105219 0.335127 -0.376295
2.585000 329.150483 -1017.920061 -0.000000 0.405969 0.307748 -0.146878 -124.884571 1012.736986 -0.000000 0.106235 0.344437 -0.376380
2.590000 378.601771 -1013.406486 -0.000000 0.406113 0.298520 -0.147293 -122.053716 970.479567 -0.000000 0.107685 0.354415 -0.376406
2.595000 428.915691 -1005.283569 -0.000000 0.405831 0.289238 -0.147200 -119.397279 908.307571 -0.000000 0.109635 0.363514 -0.376575
2.600000 477.677603 -994.354510 -0.000000 0.405798 0.280035 -0.149567 -114.528482 824.380809 -0.000000 0.111988 0.372631 -0.376571
2.605000 523.476811 -981.214636 -0.000000 0.403428 0.270847 -0.146477 -106.775694 719.334975 -0.000000 0.114701 0.381733 -0.376568
2.610000 569.573359 -963.755081 -0.000000 0.401542 0.261785 -0.146355 -99.314204 597.677837 -0.000000 0.118041 0.390869 -0.376748
2.615000 -81.855053 1121.616791 -0.000000 0.399208 0.252931 -0.145959 -147.144060 -455.410681 -0.000000 0.121948 0.399813 -0.376673
2.620000 -128.963311 1119.273603 -0.000000 0.396470 0.244301 -0.145725 -96.005342 -345.211214 -0.000000 0.126137 0.408594 -0.376667
2.625000 -55.981444 1123.427289 -0.000000 0.393281 0.235838 -0.145444 -78.470959 -243.066452 -0.000000 0.130092 0.417139 -0.376092
2.630000 -96.703879 1113.959521 -0.000000 0.389772 0.227887 -0.145504 -36.976071 -171.160032 -0.000000 0.135889 0.425640 -0.376842
2.635000 -24.591552 1105.723860 -0.000000 0.385709 0.220132 -0.145182 -18.455618 -116.854895 -0.000000 0.140819 0.433893 -0.376206
2.640000 -65.761039 1086.131819 -0.000000 0.381342 0.212576 -0.144834 5.556907 -82.913941 -0.000000 0.145719 0.441568 -0.375777
2.645000 -105.362730 1059.541120 -0.000000 0.376566 0.205417 -0.144568 19.917290 -61.891913 -0.000000 0.151485 0.449596 -0.375303
2.650000 -137.052817 1027.488059 -0.000000 0.371402 0.198643 -0.144471 26.753818 -50.939213 -0.000000 0.159130 0.456910 -0.375720
